# Blender 5.2.0 LTS
# www.blender.org
o Cone
v 0.000000 -1.000000 -1.000000
v 0.258819 -1.000000 -0.965926
v 0.500000 -1.000000 -0.866025
v 0.707107 -1.000000 -0.707107
v 0.866025 -1.000000 -0.500000
v 0.965926 -1.000000 -0.258819
v 1.000000 -1.000000 0.000000
v 0.965926 -1.000000 0.258819
v 0.866025 -1.000000 0.500000
v 0.707107 -1.000000 0.707107
v 0.500000 -1.000000 0.866025
v 0.258819 -1.000000 0.965926
v 0.000000 -1.000000 1.000000
v -0.258819 -1.000000 0.965926
v -0.500000 -1.000000 0.866025
v -0.707107 -1.000000 0.707107
v -0.866025 -1.000000 0.500000
v -0.965926 -1.000000 0.258819
v -1.000000 -1.000000 0.000000
v -0.965926 -1.000000 -0.258819
v -0.866025 -1.000000 -0.500000
v -0.707107 -1.000000 -0.707107
v -0.500000 -1.000000 -0.866025
v -0.258819 -1.000000 -0.965926
v 0.000000 1.000000 0.000000
vn 0.1169 0.4441 -0.8883
vn 0.3429 0.4441 -0.8278
vn 0.5454 0.4441 -0.7108
vn 0.7108 0.4441 -0.5454
vn 0.8278 0.4441 -0.3429
vn 0.8883 0.4441 -0.1169
vn 0.8883 0.4441 0.1169
vn 0.8278 0.4441 0.3429
vn 0.7108 0.4441 0.5454
vn 0.5454 0.4441 0.7108
vn 0.3429 0.4441 0.8278
vn 0.1169 0.4441 0.8883
vn -0.1169 0.4441 0.8883
vn -0.3429 0.4441 0.8278
vn -0.5454 0.4441 0.7108
vn -0.7108 0.4441 0.5454
vn -0.8278 0.4441 0.3429
vn -0.8883 0.4441 0.1169
vn -0.8883 0.4441 -0.1169
vn -0.8278 0.4441 -0.3429
vn -0.7108 0.4441 -0.5454
vn -0.5454 0.4441 -0.7108
vn -0.0000 -1.0000 -0.0000
vn -0.3429 0.4441 -0.8278
vn -0.1169 0.4441 -0.8883
vt 0.250000 0.490000
vt 0.250000 0.250000
vt 0.312117 0.481822
vt 0.370000 0.457846
vt 0.419706 0.419706
vt 0.457846 0.370000
vt 0.481822 0.312117
vt 0.490000 0.250000
vt 0.481822 0.187883
vt 0.457846 0.130000
vt 0.419706 0.080294
vt 0.370000 0.042154
vt 0.312117 0.018178
vt 0.250000 0.010000
vt 0.187883 0.018178
vt 0.130000 0.042154
vt 0.080294 0.080294
vt 0.042154 0.130000
vt 0.018178 0.187883
vt 0.010000 0.250000
vt 0.018178 0.312117
vt 0.042154 0.370000
vt 0.080294 0.419706
vt 0.130000 0.457846
vt 0.750000 0.490000
vt 0.812117 0.481822
vt 0.870000 0.457846
vt 0.919706 0.419706
vt 0.957846 0.370000
vt 0.981822 0.312117
vt 0.990000 0.250000
vt 0.981822 0.187883
vt 0.957846 0.130000
vt 0.919706 0.080294
vt 0.870000 0.042154
vt 0.812117 0.018178
vt 0.750000 0.010000
vt 0.687883 0.018178
vt 0.630000 0.042154
vt 0.580294 0.080294
vt 0.542154 0.130000
vt 0.518178 0.187883
vt 0.510000 0.250000
vt 0.518178 0.312117
vt 0.542154 0.370000
vt 0.580294 0.419706
vt 0.630000 0.457846
vt 0.687883 0.481822
vt 0.187883 0.481822
s 0
f 1/1/1 25/2/1 2/3/1
f 2/3/2 25/2/2 3/4/2
f 3/4/3 25/2/3 4/5/3
f 4/5/4 25/2/4 5/6/4
f 5/6/5 25/2/5 6/7/5
f 6/7/6 25/2/6 7/8/6
f 7/8/7 25/2/7 8/9/7
f 8/9/8 25/2/8 9/10/8
f 9/10/9 25/2/9 10/11/9
f 10/11/10 25/2/10 11/12/10
f 11/12/11 25/2/11 12/13/11
f 12/13/12 25/2/12 13/14/12
f 13/14/13 25/2/13 14/15/13
f 14/15/14 25/2/14 15/16/14
f 15/16/15 25/2/15 16/17/15
f 16/17/16 25/2/16 17/18/16
f 17/18/17 25/2/17 18/19/17
f 18/19/18 25/2/18 19/20/18
f 19/20/19 25/2/19 20/21/19
f 20/21/20 25/2/20 21/22/20
f 21/22/21 25/2/21 22/23/21
f 22/23/22 25/2/22 23/24/22
f 1/25/23 2/26/23 3/27/23 4/28/23 5/29/23 6/30/23 7/31/23 8/32/23 9/33/23 10/34/23 11/35/23 12/36/23 13/37/23 14/38/23 15/39/23 16/40/23 17/41/23 18/42/23 19/43/23 20/44/23 21/45/23 22/46/23 23/47/23 24/48/23
f 23/24/24 25/2/24 24/49/24
f 24/49/25 25/2/25 1/1/25
